<svg viewBox="0 0 64 64" xmlns="http://www.w3.org/2000/svg">
  <rect width="64" height="64" rx="14" fill="#1d4ed8" />
  <g transform="translate(6 8) scale(0.81)">
    <ellipse cx="20" cy="16" rx="6" ry="7" fill="#faf6ef" />
    <ellipse cx="44" cy="16" rx="6" ry="7" fill="#faf6ef" />
    <ellipse cx="20" cy="16" rx="2.4" ry="3" fill="#16308a" />
    <ellipse cx="44" cy="16" rx="2.4" ry="3" fill="#16308a" />
    <path d="M14 30c0-9 8-15 18-15s18 6 18 15c0 6-2 10-6 13-3 2.4-7 3.6-12 3.6s-9-1.2-12-3.6c-4-3-6-7-6-13Z" fill="#faf6ef" />
    <circle cx="24" cy="27" r="3.1" fill="#16308a" />
    <circle cx="40" cy="27" r="3.1" fill="#16308a" />
    <ellipse cx="32" cy="42" rx="14" ry="10" fill="#f3ecde" />
    <ellipse cx="26" cy="41" rx="2.6" ry="3.4" fill="#16308a" />
    <ellipse cx="38" cy="41" rx="2.6" ry="3.4" fill="#16308a" />
  </g>
</svg>
